{"asset":{"version":"2.0","generator":"THREE.GLTFExporter"},"scenes":[{"nodes":[0]}],"scene":0,"nodes":[{"mesh":0}],"bufferViews":[{"buffer":0,"byteOffset":0,"byteLength":59760,"target":34962,"byteStride":12},{"buffer":0,"byteOffset":59760,"byteLength":9960,"target":34963}],"buffers":[{"byteLength":69720,"uri":"data:application/octet-stream;base64,"}],"accessors":[{"bufferView":0,"componentType":5126,"count":4980,"max":[51.47483444213867,0.3099992275238037,39.777400970458984],"min":[-39.72516632080078,-1.2900007963180542,-48.92259979248047],"type":"VEC3"},{"bufferView":1,"componentType":5123,"count":4980,"max":[4979],"min":[0],"type":"SCALAR"}],"materials":[{"pbrMetallicRoughness":{"metallicFactor":0,"roughnessFactor":1}}],"meshes":[{"primitives":[{"mode":4,"attributes":{"POSITION":0},"indices":1,"material":0}]}]}